<svg width="86" height="83" viewBox="0 0 86 83" fill="none" xmlns="http://www.w3.org/2000/svg">
<g id="icon">
<path id="Vector" d="M69.0754 77.8292V74.1539C69.0754 74.1525 69.0746 74.1514 69.0746 74.1501C69.0746 74.1487 69.0754 74.1476 69.0754 74.1463V27.4336C69.1641 27.4601 69.2525 27.489 69.3499 27.489C69.8889 27.489 70.3262 27.0525 70.3262 26.5146V20.6235C70.3262 20.2273 70.087 19.8893 69.7466 19.737C70.087 19.5848 70.3262 19.2468 70.3262 18.8506V12.9595C70.3262 12.4216 69.8889 11.9851 69.3499 11.9851C69.2525 11.9851 69.1641 12.014 69.0754 12.0405V8.45507V8.45189V4.77972C69.0754 2.14406 66.9271 0 64.2855 0H21.3257C18.6842 0 16.5358 2.14406 16.5358 4.77972V8.42049C16.5355 8.43152 16.5295 8.44079 16.5295 8.45189V12.0297C16.4564 12.0123 16.3867 11.9851 16.3083 11.9851C15.7693 11.9851 15.332 12.4216 15.332 12.9595V26.5146C15.332 27.0525 15.7693 27.489 16.3083 27.489C16.3867 27.489 16.4564 27.4618 16.5295 27.4444V74.1463C16.5295 74.1574 16.5355 74.1666 16.5358 74.1777V77.8292C16.5358 80.4649 18.6842 82.6089 21.3257 82.6089H64.2855C66.9271 82.6089 69.0754 80.4649 69.0754 77.8292ZM67.1228 73.1719H18.482V9.42941H67.1228V73.1719ZM21.3257 1.94868H64.2855C65.8504 1.94868 67.1228 3.21862 67.1228 4.77972V7.47755H18.4884V4.77972C18.4884 3.21862 19.7609 1.94868 21.3257 1.94868ZM18.4884 77.8292V75.1282H67.1228V77.8292C67.1228 79.3903 65.8504 80.6603 64.2855 80.6603H21.3257C19.7609 80.6603 18.4884 79.3903 18.4884 77.8292Z" fill="#404041"/>
<path id="Vector_2" d="M37.2028 5.6894H48.4084C48.9474 5.6894 49.3846 5.25298 49.3846 4.71506C49.3846 4.17715 48.9474 3.74072 48.4084 3.74072H37.2028C36.6639 3.74072 36.2266 4.17715 36.2266 4.71506C36.2266 5.25298 36.6639 5.6894 37.2028 5.6894Z" fill="#404041"/>
<path id="Vector_3" d="M48.4084 76.9196H37.2028C36.6639 76.9196 36.2266 77.356 36.2266 77.894C36.2266 78.4319 36.6639 78.8683 37.2028 78.8683H48.4084C48.9474 78.8683 49.3846 78.4319 49.3846 77.894C49.3846 77.356 48.9474 76.9196 48.4084 76.9196Z" fill="#404041"/>
<path id="Vector_4" d="M36.2575 23.6005C48.9745 23.6005 59.3207 33.9167 59.3207 46.5965C59.3207 47.1344 59.758 47.5708 60.297 47.5708C60.836 47.5708 61.2733 47.1344 61.2733 46.5965C61.2733 32.8422 50.0512 21.6519 36.2575 21.6519C35.7185 21.6519 35.2812 22.0883 35.2812 22.6262C35.2812 23.1641 35.7185 23.6005 36.2575 23.6005Z" fill="#412689"/>
<path id="Vector_5" d="M37.4646 27.1732C36.9256 27.1732 36.4883 27.6096 36.4883 28.1475C36.4883 28.6854 36.9256 29.1218 37.4646 29.1218C46.4658 29.1218 53.7879 36.4205 53.7879 45.3913C53.7879 45.9292 54.2252 46.3656 54.7642 46.3656C55.3032 46.3656 55.7404 45.9292 55.7404 45.3913C55.7404 35.3459 47.5425 27.1732 37.4646 27.1732Z" fill="#412689"/>
<path id="Vector_6" d="M38.6716 32.6944C38.1326 32.6944 37.6953 33.1308 37.6953 33.6687C37.6953 34.2067 38.1326 34.6431 38.6716 34.6431C43.9546 34.6431 48.2538 38.9236 48.2538 44.1854C48.2538 44.7233 48.6911 45.1597 49.2301 45.1597C49.7691 45.1597 50.2064 44.7233 50.2064 44.1854C50.2064 37.849 45.0313 32.6944 38.6716 32.6944Z" fill="#412689"/>
<path id="Vector_7" d="M26.2559 44.9909C30.0674 50.4296 34.8603 55.2131 40.3165 59.0243C44.5067 61.9531 50.2612 61.5228 53.9576 57.8337C55.4433 56.351 55.4439 53.9493 53.9576 52.4659L51.0949 49.6089C49.6597 48.1759 47.1542 48.1747 45.7165 49.6089L45.3885 49.9356C44.8407 50.483 43.975 50.6314 43.2746 50.3029C39.6779 48.6023 36.7473 45.7323 34.9953 42.0413C34.6597 41.3314 34.8072 40.4827 35.3614 39.9296L35.6894 39.6022C37.1751 38.1195 37.1756 35.7172 35.6894 34.2339L32.8266 31.3768C31.3385 29.8929 28.9386 29.8907 27.4482 31.3768C23.786 35.0312 23.2851 40.7567 26.2559 44.9909ZM28.8288 32.7546C29.5636 32.0226 30.727 32.0381 31.4461 32.7546L34.3089 35.6116C35.0307 36.332 35.0322 37.5025 34.3089 38.2245L33.9809 38.5511C32.8457 39.6834 32.5432 41.4203 33.2296 42.8741C35.6208 47.912 42.9577 55.1199 46.7691 51.314L47.097 50.9867C47.7974 50.2889 49.0165 50.2908 49.7144 50.9867L52.5771 53.8437C53.299 54.5642 53.3004 55.734 52.5771 56.4559C49.5631 59.4639 44.8652 59.8232 41.4364 57.4284C36.2605 53.8126 31.6102 49.2275 27.855 43.8732C25.4283 40.4148 25.8377 35.7391 28.8288 32.7546Z" fill="#412689"/>
<path id="Vector_8" d="M9.02734 25.0398V57.5584C9.02734 58.0964 9.46463 58.5328 10.0036 58.5328C10.5426 58.5328 10.9799 58.0964 10.9799 57.5584V25.0398C10.9799 24.5019 10.5426 24.0655 10.0036 24.0655C9.46463 24.0655 9.02734 24.5019 9.02734 25.0398Z" fill="#404041"/>
<path id="Vector_9" d="M4.51562 27.7979V54.8004C4.51562 55.3383 4.95291 55.7747 5.4919 55.7747C6.03088 55.7747 6.46817 55.3383 6.46817 54.8004V27.7979C6.46817 27.26 6.03088 26.8236 5.4919 26.8236C4.95291 26.8236 4.51562 27.26 4.51562 27.7979Z" fill="#404041"/>
<path id="Vector_10" d="M0.976273 53.484C1.51526 53.484 1.95255 53.0476 1.95255 52.5097V30.0878C1.95255 29.5499 1.51526 29.1135 0.976273 29.1135C0.437289 29.1135 0 29.5499 0 30.0878V52.5097C0 53.0476 0.437289 53.484 0.976273 53.484Z" fill="#404041"/>
<path id="Vector_11" d="M75.2575 58.5328C75.7965 58.5328 76.2338 58.0964 76.2338 57.5584V25.0398C76.2338 24.5019 75.7965 24.0655 75.2575 24.0655C74.7185 24.0655 74.2812 24.5019 74.2812 25.0398V57.5584C74.2812 58.0964 74.7185 58.5328 75.2575 58.5328Z" fill="#404041"/>
<path id="Vector_12" d="M78.793 27.7979V54.8004C78.793 55.3383 79.2303 55.7747 79.7692 55.7747C80.3082 55.7747 80.7455 55.3383 80.7455 54.8004V27.7979C80.7455 27.26 80.3082 26.8236 79.7692 26.8236C79.2303 26.8236 78.793 27.26 78.793 27.7979Z" fill="#404041"/>
<path id="Vector_13" d="M84.2849 29.1135C83.7459 29.1135 83.3086 29.5499 83.3086 30.0878V52.5097C83.3086 53.0476 83.7459 53.484 84.2849 53.484C84.8239 53.484 85.2611 53.0476 85.2611 52.5097V30.0878C85.2611 29.5499 84.8239 29.1135 84.2849 29.1135Z" fill="#404041"/>
</g>
</svg>
