<svg width="80" height="80" viewBox="0 0 80 80" fill="none" xmlns="http://www.w3.org/2000/svg">
<g id="Group 1323">
<path id="Vector" d="M33.9678 43.6523H34.2676V48.4526C34.2676 48.8364 34.4873 49.186 34.833 49.353C34.9707 49.4199 35.1191 49.4526 35.2676 49.4526C35.4893 49.4526 35.709 49.3789 35.8896 49.2358L42.9238 43.6523H46.0342C52.2822 43.6523 57.3652 38.5693 57.3652 32.3213C57.3652 26.0732 52.2822 20.9902 46.0342 20.9902H33.9678C27.7197 20.9902 22.6367 26.0732 22.6367 32.3213C22.6367 38.5693 27.7197 43.6523 33.9678 43.6523ZM33.9678 22.9902H46.0342C51.1797 22.9902 55.3652 27.1763 55.3652 32.3213C55.3652 37.4663 51.1797 41.6523 46.0342 41.6523H42.5752C42.3496 41.6523 42.1299 41.7285 41.9531 41.8691L36.2676 46.3823V42.6523C36.2676 42.1001 35.8203 41.6523 35.2676 41.6523H33.9678C28.8223 41.6523 24.6367 37.4663 24.6367 32.3213C24.6367 27.1763 28.8223 22.9902 33.9678 22.9902Z" fill="#412689"/>
<path id="Vector_2" d="M79.001 39H71.4414C70.8887 39 70.4414 39.4478 70.4414 40C70.4414 40.5522 70.8887 41 71.4414 41H79.001C79.5537 41 80.001 40.5522 80.001 40C80.001 39.4478 79.5537 39 79.001 39Z" fill="#404041"/>
<path id="Vector_3" d="M75.8507 60.0248C76.214 60.0248 76.5646 59.8266 76.7413 59.4814C76.9933 58.9901 76.7999 58.3871 76.3078 58.1352L69.5812 54.684C69.091 54.4311 68.4874 54.6264 68.2355 55.1171C67.9835 55.6083 68.1769 56.2113 68.6691 56.4633L75.3956 59.9145C75.5412 59.9897 75.6974 60.0248 75.8507 60.0248Z" fill="#404041"/>
<path id="Vector_4" d="M76.7413 20.5184C76.4894 20.0272 75.8859 19.8304 75.3956 20.0853L68.6691 23.5365C68.1769 23.7885 67.9835 24.3915 68.2355 24.8827C68.4122 25.2279 68.7628 25.4262 69.1261 25.4262C69.2794 25.4262 69.4357 25.391 69.5812 25.3158L76.3078 21.8646C76.7999 21.6127 76.9933 21.0096 76.7413 20.5184Z" fill="#404041"/>
<path id="Vector_5" d="M1 41H8.55957C9.1123 41 9.55957 40.5522 9.55957 40C9.55957 39.4478 9.1123 39 8.55957 39H1C0.447266 39 0 39.4478 0 40C0 40.5522 0.447266 41 1 41Z" fill="#404041"/>
<path id="Vector_6" d="M11.7648 24.8828C12.0167 24.3916 11.8234 23.7886 11.3312 23.5367L4.60463 20.0855C4.11439 19.8321 3.51088 20.0284 3.25892 20.5186C3.00697 21.0098 3.20033 21.6128 3.69252 21.8648L10.4191 25.3159C10.5646 25.3911 10.7208 25.4263 10.8742 25.4263C11.2374 25.4263 11.588 25.2281 11.7648 24.8828Z" fill="#404041"/>
<path id="Vector_7" d="M3.25892 59.4814C3.43568 59.8266 3.78627 60.0248 4.14955 60.0248C4.30287 60.0248 4.45912 59.9897 4.60463 59.9145L11.3312 56.4633C11.8234 56.2113 12.0167 55.6083 11.7648 55.1171C11.5128 54.6259 10.9093 54.4296 10.4191 54.684L3.69252 58.1352C3.20033 58.3871 3.00697 58.9901 3.25892 59.4814Z" fill="#404041"/>
<path id="Vector_8" d="M18.043 80H61.959C63.0615 80 63.959 79.103 63.959 78V2C63.959 0.896973 63.0615 0 61.959 0H18.043C16.9404 0 16.043 0.896973 16.043 2V78C16.043 79.103 16.9404 80 18.043 80ZM18.043 78V62.7979H61.959V78H18.043ZM61.959 2V60.7979H18.043V2H61.959Z" fill="#404041"/>
<path id="Vector_9" d="M32.0078 9.06348H40.5098C41.0625 9.06348 41.5098 8.61572 41.5098 8.06348C41.5098 7.51123 41.0625 7.06348 40.5098 7.06348H32.0078C31.4551 7.06348 31.0078 7.51123 31.0078 8.06348C31.0078 8.61572 31.4551 9.06348 32.0078 9.06348Z" fill="#404041"/>
<path id="Vector_10" d="M45.9961 9.06348H47.9912C48.5439 9.06348 48.9912 8.61572 48.9912 8.06348C48.9912 7.51123 48.5439 7.06348 47.9912 7.06348H45.9961C45.4434 7.06348 44.9961 7.51123 44.9961 8.06348C44.9961 8.61572 45.4434 9.06348 45.9961 9.06348Z" fill="#404041"/>
<path id="Vector_11" d="M42.8584 66.0483H37.1455C34.7559 66.0483 32.8125 67.9917 32.8125 70.3809C32.8125 72.77 34.7559 74.7139 37.1455 74.7139H42.8584C45.248 74.7139 47.1914 72.77 47.1914 70.3809C47.1914 67.9917 45.248 66.0483 42.8584 66.0483ZM42.8584 72.7139H37.1455C35.8594 72.7139 34.8125 71.6675 34.8125 70.3809C34.8125 69.0947 35.8594 68.0483 37.1455 68.0483H42.8584C44.1445 68.0483 45.1914 69.0947 45.1914 70.3809C45.1914 71.6675 44.1445 72.7139 42.8584 72.7139Z" fill="#404041"/>
</g>
</svg>
